<svg width="63" height="21" viewBox="0 0 63 21" fill="none" xmlns="http://www.w3.org/2000/svg">
<path d="M0 20.1922V0H7.81971C11.3724 0 14.1624 0.923074 16.1897 2.76922C18.2363 4.61537 19.2597 7.03844 19.2597 10.0384C19.2597 13.0192 18.2267 15.4615 16.1607 17.3653C14.0948 19.2499 11.2758 20.1922 7.70386 20.1922H0ZM5.61861 15.2307H7.9066C9.60569 15.2307 10.9572 14.7788 11.9613 13.875C12.9846 12.9711 13.4962 11.7019 13.4962 10.0673C13.4962 8.47113 12.9846 7.21152 11.9613 6.28844C10.9572 5.36537 9.60569 4.90383 7.9066 4.90383H5.61861V15.2307Z" fill="#191C1F"/>
<path d="M27.9195 19.7724C25.4481 19.7724 23.3918 18.984 21.7506 17.407C20.1095 15.8109 19.2889 13.8782 19.2889 11.609C19.2889 9.35899 20.1095 7.43592 21.7506 5.83977C23.4111 4.24362 25.4867 3.44554 27.9774 3.44554C30.4489 3.44554 32.5052 4.24362 34.1463 5.83977C35.7875 7.41669 36.6081 9.33976 36.6081 11.609C36.6081 13.859 35.7778 15.782 34.1174 17.3782C32.4762 18.9743 30.4102 19.7724 27.9195 19.7724ZM27.9774 15.1282C28.9621 15.1282 29.7538 14.7917 30.3523 14.1186C30.9509 13.4455 31.2501 12.609 31.2501 11.609C31.2501 10.6474 30.9316 9.82052 30.2944 9.12822C29.6572 8.43591 28.8656 8.08976 27.9195 8.08976C26.9348 8.08976 26.1432 8.4263 25.5446 9.09937C24.9461 9.77245 24.6468 10.609 24.6468 11.609C24.6468 12.5705 24.9654 13.3974 25.6026 14.0897C26.2397 14.782 27.0314 15.1282 27.9774 15.1282Z" fill="#191C1F"/>
<path d="M42.4262 20.5096C38.9122 20.5096 37.1552 18.7884 37.1552 15.3461V8.99997H36.2978V4.58653H37.1552V0H42.6579V4.58653H46.3071V8.99997H42.6579V14.2788C42.6579 15.3173 43.1599 15.8365 44.1639 15.8365C44.8204 15.8365 45.5155 15.6634 46.2492 15.3173V19.6153C45.1873 20.2115 43.9129 20.5096 42.4262 20.5096Z" fill="#191C1F"/>
<path d="M46.5783 19.6488V4.58653H52.0811V6.78309C53.394 5.09079 54.958 4.24464 56.7729 4.24464C58.4334 4.24464 59.7367 4.76387 60.6828 5.80233C61.6289 6.82156 62.1019 8.21578 62.1019 9.98501V18.2353H56.5992V11.7446C56.5992 10.9177 56.3964 10.2735 55.991 9.81193C55.6048 9.35039 55.0738 9.11963 54.3981 9.11963C53.703 9.11963 53.143 9.35039 52.7183 9.81193C52.2935 10.2735 52.0811 10.9177 52.0811 11.7446V19.6488H46.5783Z" fill="#191C1F"/>
</svg>
